<svg version="1.0" xmlns="http://www.w3.org/2000/svg"
 width="512.000000pt" height="512.000000pt" viewBox="0 0 512.000000 512.000000"
 preserveAspectRatio="xMidYMid meet">

<g transform="translate(0.000000,512.000000) scale(0.100000,-0.100000)"
fill="#06B05B" stroke="none">
<path d="M2370 5114 c-19 -2 -78 -9 -130 -15 -548 -62 -1083 -325 -1489 -730
-405 -406 -652 -907 -732 -1489 -18 -125 -18 -515 0 -640 80 -582 327 -1083
732 -1489 658 -657 1607 -906 2504 -654 929 260 1646 1043 1819 1987 156 845
-103 1682 -705 2285 -398 398 -880 639 -1449 726 -100 15 -472 28 -550 19z
m535 -219 c505 -78 959 -308 1320 -670 189 -188 326 -378 445 -614 112 -221
188 -462 226 -716 25 -165 26 -504 1 -665 -26 -164 -72 -346 -124 -485 -271
-727 -885 -1281 -1628 -1470 -213 -54 -341 -69 -585 -69 -238 0 -359 13 -563
64 -430 107 -795 315 -1112 634 -297 298 -507 667 -610 1071 -56 218 -69 332
-69 585 0 254 13 368 69 585 249 972 1081 1674 2095 1769 91 8 438 -4 535 -19z"/>
<path d="M2320 4565 c-201 -25 -391 -77 -575 -157 -118 -52 -263 -135 -275
-158 -6 -10 -10 -37 -10 -58 0 -33 6 -45 31 -66 18 -15 43 -26 60 -26 16 0 78
26 142 59 720 382 1577 258 2147 -309 392 -390 588 -937 529 -1478 -103 -956
-928 -1670 -1879 -1629 -1172 51 -1990 1165 -1685 2294 35 130 87 260 156 390
33 64 59 126 59 142 0 17 -11 42 -26 60 -21 25 -33 31 -66 31 -21 0 -48 -4
-58 -10 -23 -12 -106 -156 -158 -275 -298 -679 -204 -1448 251 -2050 78 -103
259 -284 362 -362 420 -317 922 -462 1426 -413 379 37 730 176 1044 413 103
78 284 259 362 362 317 420 463 923 413 1426 -38 380 -177 732 -413 1044 -73
96 -245 271 -343 348 -422 332 -970 487 -1494 422z"/>
<path d="M2523 4165 c-99 -43 -71 -185 36 -185 96 0 138 124 59 173 -37 24
-61 27 -95 12z"/>
<path d="M1170 4013 c-55 -20 -81 -82 -55 -136 30 -63 107 -77 156 -28 33 33
38 75 14 120 -19 38 -75 59 -115 44z"/>
<path d="M2524 3766 c-65 -29 -64 -18 -64 -471 l-1 -410 -49 -23 c-64 -30
-127 -94 -159 -162 -22 -46 -26 -69 -26 -140 0 -72 4 -93 27 -141 35 -70 97
-132 168 -167 47 -23 67 -27 140 -26 54 0 98 6 120 16 l35 16 405 -404 c268
-267 414 -405 433 -409 76 -19 141 46 122 123 -4 18 -142 164 -409 432 l-404
405 16 35 c10 22 16 66 16 120 1 74 -3 93 -27 142 -34 70 -104 141 -163 165
l-44 18 0 410 c0 455 2 443 -66 471 -39 16 -32 16 -70 0z m107 -1089 c45 -30
71 -82 65 -130 -16 -133 -179 -170 -253 -58 -79 118 70 267 188 188z"/>
<path d="M991 2644 c-13 -9 -29 -32 -37 -50 -29 -68 30 -142 104 -131 112 18
110 179 -3 193 -28 4 -47 0 -64 -12z"/>
<path d="M4034 2650 c-55 -22 -72 -108 -31 -155 48 -56 133 -40 163 31 12 29
12 39 0 68 -24 57 -75 79 -132 56z"/>
<path d="M2495 1118 c-56 -49 -40 -134 31 -164 29 -12 39 -12 68 0 102 43 76
186 -34 186 -26 0 -47 -7 -65 -22z"/>
</g>
</svg>
